<svg width="134" height="68" viewBox="0 0 134 68" fill="none" xmlns="http://www.w3.org/2000/svg">
<rect x="0.300781" y="0.599609" width="133.699" height="66.8496" rx="10" fill="#5045F4"/>
<path d="M58.6304 9.29102H66.7826V25.3229H58.6305C47.8796 24.9097 47.771 9.72503 58.6304 9.29102ZM58.6304 42.0406H66.7826V26.0086H58.6305C47.7711 26.4426 47.8796 41.6273 58.6304 42.0406ZM75.6323 9.29102H67.4799V25.3229H75.6323C86.5278 24.7496 86.392 9.61826 75.6323 9.29102ZM66.7826 50.7423V42.7263H58.6305C51.9779 42.7263 47.7711 50.3955 52.3978 55.9039C56.809 61.3637 66.7827 58.6417 66.7827 50.7423M83.8013 34.0246C83.8013 27.8642 76.9722 23.9932 71.5386 27.0734C66.1051 30.1536 66.105 37.8957 71.5386 40.9759C76.9723 44.0561 83.8013 40.185 83.8013 34.0246Z" fill="white"/>
</svg>
