<svg width="135" height="68" viewBox="0 0 135 68" fill="none" xmlns="http://www.w3.org/2000/svg">
<rect x="0.867188" y="0.677734" width="133.699" height="66.8496" rx="10" fill="#5045F4"/>
<path d="M86.8982 9.3693H48.535C45.601 9.34708 43.0214 11.6429 42.9824 14.9219V53.2851C43.0215 56.564 45.601 58.8598 48.535 58.8376H86.8982C90.693 58.7835 92.3852 55.9176 92.451 53.2851V14.9219C92.3853 12.2893 90.6931 9.42321 86.8982 9.3693ZM58.0438 49.4978C57.6575 52.3662 55.863 54.2389 52.5675 54.3317C49.9993 54.4042 47.9137 53.2951 46.6179 50.8499L49.7279 48.9568C49.7284 48.9578 50.5479 50.4358 51.4265 50.74C51.8908 50.9008 52.8632 50.9597 53.497 50.5456C54.076 50.1676 54.2577 49.1597 54.2577 49.1597V35.5027H58.0438V49.4978ZM70.4649 53.5834C67.4335 54.9285 62.0541 54.4383 60.2073 50.3765L63.2496 48.6187C64.7709 51.509 68.7162 51.5021 69.4907 49.5985C70.2472 47.7397 67.9653 47.013 65.1335 45.7572C63.9019 45.122 61.9961 44.1217 61.424 41.6774C60.9924 39.8329 61.3776 37.0457 64.2636 35.7728L64.2639 35.773C68.2668 34.304 71.3403 36.1787 72.2417 38.3421L69.3345 40.2353C68.9046 39.4596 67.9886 38.6665 66.9311 38.6098C65.972 38.5583 65.0804 39.0596 65.0519 40.3566C65.1089 42.2465 67.594 42.2463 70.574 44.134C72.7571 45.5169 73.1659 46.5739 73.3678 48.4845C73.5174 49.9005 73.2509 52.3472 70.4649 53.5834ZM85.2227 54.2302L81.5719 47.7397L77.921 54.2303H74.2025L79.4759 44.5622L74.5405 35.3673H78.3269L81.572 41.3844L84.8171 35.3672H88.5356L83.6677 44.5621L88.9412 54.2302H85.2227Z" fill="white"/>
</svg>
