<svg width="134" height="67" viewBox="0 0 134 67" fill="none" xmlns="http://www.w3.org/2000/svg">
<rect x="0.300781" y="0.150391" width="133.699" height="66.8496" rx="10" fill="white"/>
<path d="M66.8438 17.2887V59.9066L71.2763 56.1751L73.1392 11.9883L66.8438 17.2887Z" fill="url(#paint0_linear_322_85)"/>
<path d="M66.8423 17.2887L60.5469 11.9883L62.4098 56.1751L66.8423 59.9066V17.2887Z" fill="url(#paint1_linear_322_85)"/>
<path d="M51.5391 36.4687L53.9787 50.3316L57.5122 46.1055L56.8168 30.1562L51.5391 36.4687Z" fill="url(#paint2_linear_322_85)"/>
<path d="M51.5408 36.4682L44.4199 32.3438L49.2171 47.5693L53.9804 50.3311L51.5408 36.4682Z" fill="url(#paint3_linear_322_85)"/>
<path d="M56.8186 30.1573L49.7033 26.0527L44.4199 32.3453L51.538 36.4698L56.8186 30.1573Z" fill="#6133CC"/>
<path d="M82.5313 29.0795L79.7129 45.0513L84.1172 42.4958L89.6493 24.9551L82.5313 29.0795Z" fill="url(#paint4_linear_322_85)"/>
<path d="M82.5324 29.08L77.2518 22.7676L76.4434 41.1422L79.714 45.0518L82.5324 29.08Z" fill="url(#paint5_linear_322_85)"/>
<path d="M89.6487 24.9547L84.3652 18.6621L77.25 22.7667L82.5278 29.0791L89.6487 24.9547Z" fill="#6E50A9"/>
<path d="M73.1378 11.9874L66.8423 6.83398L60.5469 11.9874L66.8423 17.2878L73.1378 11.9874Z" fill="#6500F3"/>
<defs>
<linearGradient id="paint0_linear_322_85" x1="69.7611" y1="59.0783" x2="69.9985" y2="13.0116" gradientUnits="userSpaceOnUse">
<stop stop-color="#5045F4"/>
<stop offset="0.51" stop-color="#0C00C5"/>
<stop offset="0.9" stop-color="#8245F4"/>
<stop offset="1" stop-color="#5045F4"/>
</linearGradient>
<linearGradient id="paint1_linear_322_85" x1="64.1172" y1="57.4076" x2="63.6649" y2="11.5756" gradientUnits="userSpaceOnUse">
<stop stop-color="#5045F4"/>
<stop offset="0.5" stop-color="#837AFF"/>
<stop offset="1" stop-color="#0B00AE"/>
</linearGradient>
<linearGradient id="paint2_linear_322_85" x1="54.7645" y1="49.8511" x2="54.2274" y2="30.634" gradientUnits="userSpaceOnUse">
<stop stop-color="#4568F4"/>
<stop offset="0.19" stop-color="#7A45F4"/>
<stop offset="0.54" stop-color="#5045F4"/>
<stop offset="1" stop-color="#5045F4"/>
</linearGradient>
<linearGradient id="paint3_linear_322_85" x1="48.892" y1="50.153" x2="49.5083" y2="32.519" gradientUnits="userSpaceOnUse">
<stop stop-color="#29237E"/>
<stop offset="0.51" stop-color="#403C74"/>
<stop offset="1" stop-color="#481187"/>
</linearGradient>
<linearGradient id="paint4_linear_322_85" x1="82.6048" y1="45.1191" x2="86.52" y2="24.777" gradientUnits="userSpaceOnUse">
<stop stop-color="#7152AF"/>
<stop offset="1" stop-color="#5045F4"/>
</linearGradient>
<linearGradient id="paint5_linear_322_85" x1="74.7862" y1="43.0603" x2="82.1811" y2="24.7599" gradientUnits="userSpaceOnUse">
<stop stop-color="#5045F4"/>
<stop offset="0.17" stop-color="#7152AF"/>
<stop offset="0.48" stop-color="#5045F4"/>
<stop offset="1" stop-color="#7152AF"/>
</linearGradient>
</defs>
</svg>
