<svg width="134" height="67" viewBox="0 0 134 67" fill="none" xmlns="http://www.w3.org/2000/svg">
<rect x="0.0957031" y="0.150391" width="133.699" height="66.8496" rx="10" fill="white"/>
<path d="M65.2611 18.7472V31.6796H60.72V19.5709C60.72 12.7451 49.4298 12.7451 49.4298 19.5709V31.6796H44.8887V18.7472C44.8887 6.43061 65.2611 6.43061 65.2611 18.7472ZM67.9611 44.0407V56.973H72.5022V44.8643C72.5022 38.0385 83.7924 38.0385 83.7924 44.8643V56.973H88.3335V44.0407C88.3335 31.7242 67.9611 31.7242 67.9611 44.0407ZM88.3335 27.0065H77.3196C74.9653 27.0065 72.9308 25.9458 72.9308 23.2029H88.2101C88.2101 23.2029 89.8474 9.61844 77.9155 9.61844C65.9836 9.61844 67.621 20.096 67.621 23.2029C67.621 26.3098 69.6037 32.4403 77.3196 32.4403H88.3335V27.0065ZM72.9308 19.0358C72.9308 12.7008 83.2844 12.7008 83.2844 19.0358H72.9308ZM49.9037 49.0204C49.9037 53.1714 60.2461 53.1714 60.2461 49.0204V42.9185C60.2461 38.0204 49.9037 38.0204 49.9037 42.9185V49.0204ZM45.0286 41.9211C45.0286 32.2971 65.1211 32.2971 65.1211 41.9211V49.5409C65.1211 59.2459 45.0285 59.2459 45.0285 49.5409L45.0286 41.9211Z" fill="#5045F4"/>
</svg>
