<svg width="134" height="68" viewBox="0 0 134 68" fill="none" xmlns="http://www.w3.org/2000/svg">
<rect y="0.677734" width="133.699" height="66.8496" rx="10" fill="white"/>
<path d="M70.1926 52.671H90.8045C91.4619 52.671 92.0914 52.4398 92.6624 52.1139C93.2306 51.788 93.8183 51.3785 94.147 50.8159C94.4757 50.2504 94.7041 49.6098 94.7041 48.958C94.7041 48.3062 94.4757 47.6656 94.147 47.1002L80.22 23.1457C79.9162 22.6 79.4656 22.1503 78.9192 21.8477C78.2933 21.5008 77.593 21.3097 76.8775 21.2906C76.2202 21.2906 75.5907 21.5218 75.0197 21.8477C74.4744 22.1508 74.0247 22.6004 73.7217 23.1457L70.1926 29.2736L63.1372 17.3911C62.8085 16.8256 62.4074 16.2296 61.8364 15.9037C61.2654 15.5778 60.6387 15.5332 59.9785 15.5332C59.3212 15.5332 58.6917 15.5778 58.1234 15.9037C57.5552 16.2296 56.9647 16.8228 56.636 17.3911L39.3666 47.1002C39.0379 47.6656 38.9961 48.3062 38.9961 48.958C38.9961 49.6098 39.0379 50.2504 39.3666 50.8159C39.6952 51.3785 40.2857 51.7908 40.854 52.1139C41.4222 52.437 42.0517 52.671 42.709 52.671H55.7085C60.8615 52.671 64.6079 50.3591 67.2206 45.986L73.5351 35.031L76.8775 29.2736L87.0916 46.7297H73.5351L70.1926 52.671ZM55.5219 46.7297H46.4248L59.9785 23.3323L66.8501 35.031L62.2988 42.9638C60.5635 45.8049 58.5858 46.7297 55.5219 46.7297Z" fill="#5045F4"/>
</svg>
