<svg width="135" height="68" viewBox="0 0 135 68" fill="none" xmlns="http://www.w3.org/2000/svg">
<rect x="0.433594" y="0.677734" width="133.699" height="66.8496" rx="10" fill="#5045F4"/>
<path d="M63.7753 36.5818V36.2754C63.9424 35.8576 64.1095 35.4677 64.3045 35.0777C65.8461 31.8196 66.1047 28.1004 65.0287 24.6603C64.9725 24.169 64.7656 23.7071 64.4365 23.3381C64.1073 22.969 63.672 22.7109 63.1903 22.5991C61.1181 22.4549 59.0628 23.0576 57.3967 24.2982V24.7996C57.5805 27.0367 57.5245 29.2872 57.2296 31.5124C57.0715 32.5112 57.145 33.533 57.4445 34.4989C57.7439 35.4647 58.2612 36.3489 58.9565 37.0832C59.4687 37.6281 60.0853 38.0642 60.7696 38.3657C61.4539 38.6672 62.1919 38.8278 62.9396 38.838C63.1773 38.0714 63.4563 37.3183 63.7753 36.5818ZM61.7141 24.5767C61.5576 24.3994 61.4688 24.1725 61.4634 23.9361C61.5004 23.7964 61.5903 23.6765 61.7141 23.6019C62.1252 23.3885 62.5961 23.3198 63.0511 23.4069C63.7474 23.4069 64.4438 23.8525 64.3881 24.3539C64.2841 24.6298 64.0968 24.8665 63.8523 25.0313C63.6077 25.196 63.318 25.2805 63.0232 25.2731H62.8561C62.3984 25.2009 61.9879 24.9505 61.7141 24.5767Z" fill="white"/>
<path d="M55.8078 31.3172C56.0587 29.1912 56.1147 27.0468 55.9749 24.9107V24.1308C55.8651 19.5326 57.3845 15.0436 60.2644 11.4572C57.479 10.5659 50.7941 8.67184 46.6995 11.7358C44.1927 13.5184 43.0228 16.8609 43.2735 21.624C43.8306 25.7848 44.7629 29.8868 46.0589 33.8797C47.9529 40.0633 50.0977 43.9629 51.9361 44.6035C52.2146 44.6035 53.0781 44.9656 54.3315 43.4615C56.1142 41.3446 57.7576 39.5341 58.5096 38.7263L57.9804 38.1971C57.108 37.2984 56.4573 36.2085 56.0801 35.0142C55.703 33.8198 55.6097 32.5539 55.8078 31.3172ZM65.5567 40.7875C65.111 40.6204 64.8882 40.509 64.3868 41.0939C64.0885 41.3937 63.8181 41.72 63.579 42.0688C62.6042 43.2665 62.1863 43.6843 59.3731 44.2693C58.9921 44.3325 58.6187 44.4352 58.2589 44.5757C58.5686 44.7926 58.9193 44.9443 59.2895 45.0213C60.536 45.4429 61.8847 45.454 63.1379 45.053C64.3911 44.6519 65.4829 43.8599 66.253 42.793C66.325 42.6406 66.3623 42.4741 66.3623 42.3056C66.3623 42.137 66.325 41.9705 66.253 41.8181C66.1622 41.3978 65.9127 41.0287 65.5567 40.7875ZM83.0768 24.5765C83.2093 23.8501 83.2839 23.1143 83.2997 22.376C81.4613 22.1532 79.3444 22.181 78.5088 23.3788C76.8933 25.6906 80.0686 31.4007 81.2942 33.824C81.5658 34.2527 81.8077 34.6994 82.0184 35.161C82.1326 35.4603 82.2724 35.7492 82.4362 36.0245C83.1648 34.1337 83.3198 32.07 82.8819 30.0916C82.7485 29.1225 82.6833 28.1452 82.6869 27.1669C82.7489 26.2946 82.8793 25.4284 83.0768 24.5765ZM81.517 24.1308C81.2758 24.3767 80.9645 24.5421 80.6257 24.6043H80.4586C80.1937 24.6054 79.9348 24.526 79.716 24.3769C79.4972 24.2277 79.3288 24.0156 79.233 23.7687C79.233 23.3788 79.7901 23.1002 80.4586 22.9888C81.1271 22.8774 81.7956 22.9888 81.8513 23.4066C81.8386 23.6824 81.7186 23.9422 81.517 24.1308Z" fill="white"/>
<path d="M81.2108 14.2698C83.0458 16.3103 84.3557 18.7674 85.0268 21.4283C85.0418 21.5671 85.0418 21.7072 85.0268 21.8461C85.0355 22.8359 84.9516 23.8244 84.7762 24.7986C84.6433 25.5912 84.5596 26.3912 84.5255 27.194C84.5198 28.1261 84.5849 29.0573 84.7205 29.9794C85.2831 32.5353 84.9281 35.2076 83.7177 37.5279L83.9127 37.7507C90.0963 28.0297 92.2689 16.7488 90.2913 14.2698C89.0244 12.6772 87.4087 11.3968 85.5687 10.5275C83.7287 9.65825 81.7136 9.22324 79.6789 9.25606C78.1536 9.23384 76.6306 9.38333 75.1387 9.70173C77.4768 10.7547 79.551 12.3152 81.2108 14.2698Z" fill="white"/>
<path d="M94.1636 39.6742C93.9686 39.1171 93.133 37.3066 90.069 37.9473C89.1524 38.1459 88.2206 38.2671 87.2836 38.3094C89.7995 34.0574 91.7295 29.4852 93.0216 24.7166C94.0521 20.6778 94.8599 15.2741 92.7152 12.5166C91.1399 10.5183 89.1228 8.91241 86.8223 7.82501C84.5219 6.73761 82.0007 6.19829 79.4567 6.24942C77.1369 6.2329 74.8276 6.56146 72.6046 7.22431C71.2704 6.99004 69.9201 6.85967 68.5657 6.83435C66.1682 6.78508 63.8015 7.38156 61.7137 8.5613C60.1037 8.0283 58.4556 7.61859 56.7835 7.33572C54.7973 6.82933 52.7291 6.73115 50.7039 7.04714C48.6787 7.36312 46.7387 8.0867 45.0012 9.17409C41.5473 11.5974 39.9597 15.8312 40.2382 21.7641C40.7703 26.1755 41.7026 30.5294 43.0236 34.7719C43.8132 37.4249 44.8483 39.9986 46.1154 42.4596C47.0233 44.7229 48.7694 46.5488 50.9899 47.5569C51.7953 47.8192 52.656 47.862 53.4835 47.6808C54.3109 47.4997 55.0751 47.1011 55.6972 46.5263C56.4427 47.3375 57.412 47.9094 58.4826 48.1697C60.6477 48.7662 62.9493 48.6291 65.0283 47.7797V50.0359C65.0064 52.2567 65.297 54.4696 65.8918 56.6095C65.8996 56.73 65.8996 56.851 65.8918 56.9716C66.2632 58.2653 66.9416 59.4502 67.8694 60.4255C68.9913 61.4751 70.4841 62.0362 72.0196 61.9853C72.6761 61.9879 73.3305 61.9131 73.9694 61.7625C75.18 61.615 76.3487 61.2259 77.4061 60.6182C78.4636 60.0105 79.3882 59.1967 80.1252 58.225C82.0118 54.8275 82.891 50.9627 82.6599 47.0834V46.3592H83.1334C85.4183 46.5174 87.7083 46.1358 89.8183 45.245C91.0718 44.6044 95.1385 42.4596 94.1636 39.6742ZM89.122 43.7688C87.529 44.4102 85.8255 44.732 84.1083 44.7158C83.3648 44.7365 82.6226 44.6425 81.9078 44.4373C81.6293 47.0555 81.0165 51.93 80.6544 53.9633C80.5475 55.6038 79.8566 57.1518 78.707 58.327C77.5574 59.5021 76.025 60.2268 74.3872 60.3698C73.7829 60.4983 73.1667 60.5636 72.5489 60.5647C71.3361 60.5364 70.1658 60.1131 69.2156 59.359C68.2654 58.6049 67.5874 57.5612 67.2845 56.3866C66.5672 52.6626 66.3053 48.8652 66.5045 45.0779C65.1486 46.3035 63.3737 46.9616 61.5465 46.9163C60.6625 46.8999 59.7835 46.7783 58.9282 46.5542C58.6776 46.5542 56.505 45.9135 56.5328 44.5208C56.5607 43.1281 58.3712 42.8774 59.0397 42.7382C61.4351 42.2368 61.6022 42.0418 62.3543 41.0948C62.5192 40.8631 62.6958 40.64 62.8835 40.4263C61.8029 40.3858 60.7456 40.1 59.7917 39.5907C59.1511 40.287 57.3963 42.1811 55.5022 44.4373C55.158 44.9492 54.6995 45.3742 54.1629 45.6787C53.6264 45.9833 53.0265 46.159 52.4104 46.1921C52.0872 46.2397 51.7587 46.2397 51.4355 46.1921C48.9844 45.245 46.6725 41.2062 44.5556 34.1034C43.238 29.9929 42.3056 25.7688 41.7702 21.4856C41.4916 16.1376 42.8843 12.3494 45.8647 10.344C51.2127 6.55581 59.7917 9.48048 61.7415 10.1768C63.7254 8.86294 66.0778 8.2187 68.4543 8.33847C69.7701 8.34045 71.0804 8.50891 72.3539 8.83984C74.5951 8.07652 76.9498 7.69977 79.3174 7.72568C81.617 7.66245 83.9 8.13249 85.9876 9.09897C88.0752 10.0655 89.9107 11.5021 91.3503 13.2965C93.2722 15.7476 91.991 21.6527 91.3503 24.1317C89.9229 29.4778 87.6572 34.5639 84.6375 39.2007C85.0832 39.5071 86.448 40.0642 90.2083 39.2007C91.4896 38.9222 92.2416 39.2007 92.4923 39.8971C93.1051 41.429 90.5425 43.0446 89.122 43.7131V43.7688Z" fill="white"/>
<path d="M82.4083 38.5313C81.6985 37.6931 81.1165 36.7545 80.6813 35.7459C80.6813 35.551 80.3471 35.0774 80.0407 34.5482C78.4251 31.7628 75.0548 25.5792 77.2553 22.4596C77.996 21.6719 78.9354 21.0983 79.9745 20.7993C81.0137 20.5003 82.1142 20.4869 83.1603 20.7605C82.4432 18.7853 81.3771 16.9551 80.0128 15.3568C78.6208 13.6419 76.8688 12.254 74.8809 11.2913C72.8929 10.3286 70.7177 9.81474 68.5091 9.78601C67.2058 9.70385 65.8998 9.89701 64.676 10.3529C63.4523 10.8088 62.3382 11.5173 61.4064 12.4321C59.0348 15.226 57.6798 18.741 57.5625 22.4039L57.9803 22.181C59.1384 21.5564 60.4053 21.1593 61.7127 21.0112C62.2538 20.8859 62.8149 20.8735 63.3609 20.9748C63.907 21.0761 64.4263 21.2889 64.8863 21.6C65.3464 21.9111 65.7374 22.3137 66.0348 22.7827C66.3323 23.2517 66.5298 23.777 66.6151 24.3258C67.7602 28.0929 67.4725 32.1503 65.8073 35.7181C65.6239 36.0685 65.4657 36.4315 65.3338 36.8044V37.1108C65.0552 37.8628 64.8045 38.5592 64.6374 39.1441C65.174 39.0419 65.7292 39.1101 66.2251 39.3391C66.6441 39.5385 67.0152 39.8258 67.3132 40.1815C67.6112 40.5372 67.8291 40.9529 67.952 41.4003V41.846C67.9646 41.9291 67.9646 42.0136 67.952 42.0967C67.6515 46.6548 67.8571 51.2322 68.5648 55.7451C68.6903 56.3346 68.9417 56.89 69.302 57.3732C69.6623 57.8563 70.1228 58.2558 70.652 58.5442C71.1813 58.8327 71.7666 59.0032 72.3679 59.0441C72.9692 59.085 73.5722 58.9953 74.1356 58.7812C75.4619 58.6918 76.7074 58.1116 77.6292 57.1537C78.551 56.1959 79.083 54.9291 79.1215 53.6004C79.5393 51.1492 80.3749 44.2693 80.4863 42.793C80.4863 39.8405 81.9348 39.2555 82.8261 39.0049L82.4083 38.5313Z" fill="white"/>
<path d="M83.9964 40.5929L83.7735 40.4258H83.4393C82.7151 40.6208 82.0466 40.8157 82.1301 42.6541C82.9521 42.9802 83.8427 43.0951 84.7206 42.9883C86.0376 42.9325 87.3363 42.6595 88.5644 42.1806C89.3699 41.8172 90.1126 41.3283 90.7649 40.7322C88.5657 41.5033 86.162 41.4538 83.9964 40.5929Z" fill="white"/>
</svg>
