<svg width="134" height="68" viewBox="0 0 134 68" fill="none" xmlns="http://www.w3.org/2000/svg">
<rect x="0.300781" y="0.677734" width="133.699" height="66.8496" rx="10" fill="white"/>
<path d="M83.108 48.5854L61.0194 55.1485C60.3445 55.3491 59.6977 54.7628 59.8396 54.0786L67.7306 16.1141C67.8782 15.4037 68.855 15.2914 69.1632 15.9489L83.7739 47.1175C84.0495 47.7059 83.7351 48.3994 83.1079 48.5855M86.8957 47.0369L69.9787 10.9465C68.8635 8.85078 66.2245 8.92682 65.1935 10.6808L46.8459 40.5351C46.2775 41.466 46.2888 42.6134 46.8782 43.5322L55.8469 57.4896C56.7716 58.5972 57.6267 59.1196 59.0872 58.6856L85.1204 50.9505C86.8547 50.4287 87.6904 48.7455 86.8957 47.0369Z" fill="#5045F4"/>
</svg>
