<svg width="135" height="68" viewBox="0 0 135 68" fill="none" xmlns="http://www.w3.org/2000/svg">
<rect x="0.867188" y="0.599609" width="133.699" height="66.8496" rx="10" fill="#5045F4"/>
<path d="M81.5249 9.29102H55.2446C48.8413 9.29102 43.6504 14.4819 43.6504 20.8852V47.1655C43.6504 53.5688 48.8413 58.7597 55.2446 58.7597H81.5249C87.9282 58.7597 93.1191 53.5688 93.1191 47.1655V20.8852C93.1191 14.4819 87.9282 9.29102 81.5249 9.29102Z" fill="white"/>
<path fill-rule="evenodd" clip-rule="evenodd" d="M59.6898 30.5464C60.8492 25.9087 63.7478 23.5898 68.3855 23.5898C75.342 23.5898 76.2116 28.8072 79.6899 29.6768C82.0087 30.2568 84.0377 29.3872 85.7768 27.0681C84.6174 31.7058 81.7189 34.0247 77.0812 34.0247C70.1246 34.0247 69.2551 28.8072 65.7768 27.9377C63.4579 27.358 61.4289 28.2275 59.6898 30.5464ZM50.9941 40.9812C52.1536 36.3435 55.0521 34.0247 59.6898 34.0247C66.6464 34.0247 67.5159 39.2421 70.9942 40.1116C73.313 40.6916 75.342 39.822 77.0812 37.5029C75.9217 42.1406 73.0232 44.4595 68.3855 44.4595C61.4289 44.4595 60.5594 39.2421 57.0811 38.3725C54.7623 37.7925 52.7333 38.6621 50.9941 40.9812Z" fill="#5045F4"/>
</svg>
