<svg width="135" height="68" viewBox="0 0 135 68" fill="none" xmlns="http://www.w3.org/2000/svg">
<rect x="0.433594" y="0.599609" width="133.699" height="66.8496" rx="10" fill="#5045F4"/>
<mask id="mask0_322_48" style="mask-type:luminance" maskUnits="userSpaceOnUse" x="41" y="9" width="50" height="50">
<path d="M41.2109 19.291C41.2109 13.7682 45.6881 9.29102 51.2109 9.29102H80.6797C86.2025 9.29102 90.6797 13.7682 90.6797 19.291V48.7597C90.6797 54.2826 86.2025 58.7597 80.6797 58.7597H51.2109C45.6881 58.7597 41.2109 54.2826 41.2109 48.7597V19.291Z" fill="white"/>
</mask>
<g mask="url(#mask0_322_48)">
<path d="M89.5027 9.29102H42.3858C42.2314 9.29102 42.0784 9.32148 41.9357 9.38065C41.7931 9.43982 41.6634 9.52655 41.5543 9.63587C41.4452 9.74518 41.3587 9.87494 41.2998 10.0177C41.2409 10.1605 41.2107 10.3135 41.2109 10.468V57.5849C41.2107 57.7395 41.2409 57.8927 41.3 58.0356C41.359 58.1785 41.4457 58.3083 41.5551 58.4177C41.6644 58.527 41.7942 58.6137 41.9372 58.6728C42.0801 58.7318 42.2332 58.7621 42.3879 58.7618H89.5048C89.6594 58.7621 89.8126 58.7318 89.9555 58.6728C90.0984 58.6137 90.2283 58.527 90.3376 58.4177C90.4469 58.3083 90.5336 58.1785 90.5927 58.0356C90.6517 57.8927 90.682 57.7395 90.6817 57.5849V10.4659C90.6817 10.3113 90.6512 10.1582 90.5919 10.0153C90.5326 9.87253 90.4457 9.74283 90.3361 9.63368C90.2266 9.52452 90.0966 9.43807 89.9536 9.37927C89.8106 9.32047 89.6573 9.29048 89.5027 9.29102ZM70.6572 35.7279H64.7684V54.0478H60.0565V35.7279H54.1676V31.6694H70.6572V35.7279ZM71.9764 53.0008V48.1054C71.9764 48.1054 74.6518 50.1213 77.8611 50.1213C81.0704 50.1213 80.9467 48.023 80.9467 47.7344C80.9467 44.69 71.8527 44.69 71.8527 37.9417C71.8527 28.7652 85.1041 32.3867 85.1041 32.3867L84.9392 36.7482C84.9392 36.7482 82.7173 35.2662 80.2067 35.2662C77.6962 35.2662 76.7913 36.4617 76.7913 37.7355C76.7913 41.0273 85.9678 40.6995 85.9678 47.3242C85.9678 57.5271 71.9764 53.0028 71.9764 53.0028" fill="white"/>
</g>
</svg>
