<svg width="134" height="67" viewBox="0 0 134 67" fill="none" xmlns="http://www.w3.org/2000/svg">
<rect y="0.150391" width="133.699" height="66.8496" rx="10" fill="white"/>
<path d="M86.7384 42.6661V21.4516L68.5837 10.8457V18.9912L75.695 23.1562C75.9763 23.3466 75.9763 23.7244 75.695 23.821L67.2711 28.7447C66.9899 28.935 66.7114 28.8384 66.5239 28.7447L58.1 23.821C57.8188 23.7244 57.8188 23.2528 58.1 23.1562L65.2142 18.9912V10.8457L46.9629 21.4516V42.6661L53.8895 38.5948V30.259C53.8895 29.9749 54.2617 29.7874 54.4492 29.8811L62.8731 34.8048C63.1544 34.9951 63.2481 35.1855 63.2481 35.4696V45.3169C63.2481 45.601 62.8731 45.7913 62.6856 45.6976L55.5743 41.5297L48.6477 45.601L66.8024 56.3034L84.9599 45.6976L78.0333 41.6234L70.9248 45.7913C70.6435 45.9817 70.3623 45.7913 70.3623 45.4135V35.5633C70.3623 35.2792 70.5498 34.9951 70.7373 34.9014L79.1612 29.9749C79.4424 29.7874 79.7209 29.9749 79.7209 30.3556V38.6886L86.7384 42.6661Z" fill="#5045F4"/>
</svg>
