<svg width="135" height="67" viewBox="0 0 135 67" fill="none" xmlns="http://www.w3.org/2000/svg">
<rect x="0.867188" y="0.150391" width="133.699" height="66.8496" rx="10" fill="white"/>
<path d="M67.5998 28.0554C63.5798 28.0554 60.6813 30.6854 60.6813 34.6303C60.6813 38.5754 63.9439 41.2054 67.9641 41.2054C70.3928 41.2054 72.5339 40.241 73.8595 38.6155L71.0737 37.0011C70.3382 37.8083 69.2202 38.2795 67.9639 38.2795C66.2198 38.2795 64.7377 37.3664 64.1878 35.9053H74.3909C74.4712 35.496 74.5184 35.0722 74.5184 34.6267C74.5184 30.6854 71.62 28.0554 67.5998 28.0554ZM64.1554 33.3519C64.6104 31.8944 65.8559 30.9775 67.5964 30.9775C69.3406 30.9775 70.5861 31.8944 71.0375 33.3519H64.1554ZM106.81 28.0552C102.79 28.0552 99.8916 30.6854 99.8916 34.6303C99.8916 38.5754 103.154 41.2054 107.174 41.2054C109.603 41.2054 111.744 40.241 113.07 38.6155L110.284 37.0011C109.548 37.8083 108.431 38.2795 107.174 38.2795C105.43 38.2795 103.948 37.3664 103.398 35.9053H113.601C113.681 35.496 113.728 35.0722 113.728 34.6267C113.728 30.6854 110.83 28.0552 106.81 28.0552M103.369 33.3519C103.824 31.8944 105.069 30.9775 106.81 30.9775C108.554 30.9775 109.799 31.8944 110.251 33.3519H103.369ZM89.1564 34.6303C89.1564 36.822 90.584 38.2831 92.7978 38.2831C94.298 38.2831 95.4232 37.6002 96.0023 36.486L98.7988 38.1042C97.6408 40.0401 95.4706 41.2054 92.7978 41.2054C88.7742 41.2054 85.8793 38.5752 85.8793 34.6303C85.8793 30.6854 88.7778 28.0554 92.7978 28.0554C95.4706 28.0554 97.6372 29.2207 98.7988 31.1566L96.0023 32.7748C95.4232 31.6606 94.298 30.9777 92.7978 30.9777C90.5876 30.9777 89.1564 32.4384 89.1564 34.6303ZM119.191 24.0373V40.8401H115.913V24.0373H119.191ZM29.6971 22.2109L43.1517 45.5887H16.2422L29.6971 22.2109ZM63.3359 24.0373L53.2457 41.5706L43.1554 24.0373H46.9389L53.2457 34.9958L59.5525 24.0373H63.3359ZM84.7871 28.4207V31.9602C84.423 31.8543 84.0371 31.7813 83.6219 31.7813C81.5063 31.7813 79.9805 33.2424 79.9805 35.4341V40.8401H76.7033V28.4207H79.9805V31.7811C79.9805 29.9254 82.1326 28.4207 84.7871 28.4207Z" fill="#5045F4"/>
</svg>
