<svg width="134" height="68" viewBox="0 0 134 68" fill="none" xmlns="http://www.w3.org/2000/svg">
<rect width="133.699" height="66.8496" rx="10" transform="matrix(1 0 0 -1 0 67.4492)" fill="#5045F4"/>
<path d="M58.1197 40.802L53.9938 52.3545C53.822 52.8352 53.5058 53.251 53.0885 53.5451C52.6712 53.8391 52.1732 53.9969 51.6627 53.9969C51.1522 53.9969 50.6542 53.8391 50.2369 53.5451C49.8196 53.251 49.5034 52.8352 49.3316 52.3545L45.2057 40.802C45.0213 40.1927 45.0788 39.5357 45.3662 38.9676C45.6537 38.3995 46.1489 37.964 46.7491 37.7515C47.3492 37.5391 48.0082 37.566 48.589 37.8268C49.1698 38.0875 49.6279 38.562 49.8679 39.1517L51.6627 44.1688L53.4574 39.1517C53.6975 38.562 54.1555 38.0875 54.7364 37.8268C55.3172 37.566 55.9761 37.5391 56.5763 37.7515C57.1765 37.964 57.6717 38.3995 57.9591 38.9676C58.2466 39.5357 58.3041 40.1927 58.1197 40.802ZM83.8445 49.0538H79.7186V48.2286H82.1942C82.8507 48.2286 83.4804 47.9678 83.9446 47.5035C84.4089 47.0393 84.6697 46.4096 84.6697 45.7531C84.6697 45.0965 84.4089 44.4669 83.9446 44.0026C83.4804 43.5384 82.8507 43.2776 82.1942 43.2776H79.7186V42.4524H83.8445C84.5011 42.4524 85.1307 42.1916 85.595 41.7273C86.0592 41.2631 86.32 40.6334 86.32 39.9769C86.32 39.3203 86.0592 38.6907 85.595 38.2264C85.1307 37.7622 84.5011 37.5013 83.8445 37.5013H77.2431C76.5866 37.5013 75.9569 37.7622 75.4926 38.2264C75.0284 38.6907 74.7676 39.3203 74.7676 39.9769V51.5293C74.7676 52.1859 75.0284 52.8155 75.4926 53.2798C75.9569 53.744 76.5866 54.0048 77.2431 54.0048H83.8445C84.5011 54.0048 85.1307 53.744 85.595 53.2798C86.0592 52.8155 86.32 52.1859 86.32 51.5293C86.32 50.8728 86.0592 50.2431 85.595 49.7789C85.1307 49.3146 84.5011 49.0538 83.8445 49.0538ZM69.8165 37.5013C69.16 37.5013 68.5303 37.7622 68.0661 38.2264C67.6018 38.6907 67.341 39.3203 67.341 39.9769V47.816C67.341 48.1443 67.2106 48.4591 66.9785 48.6913C66.7464 48.9234 66.4315 49.0538 66.1032 49.0538C65.775 49.0538 65.4601 48.9234 65.228 48.6913C64.9959 48.4591 64.8655 48.1443 64.8655 47.816V39.9769C64.8655 39.3203 64.6047 38.6907 64.1404 38.2264C63.6762 37.7622 63.0465 37.5013 62.39 37.5013C61.7334 37.5013 61.1037 37.7622 60.6395 38.2264C60.1752 38.6907 59.9144 39.3203 59.9144 39.9769V47.816C59.9144 49.4574 60.5665 51.0316 61.7271 52.1922C62.8877 53.3528 64.4619 54.0048 66.1032 54.0048C67.7446 54.0048 69.3188 53.3528 70.4794 52.1922C71.64 51.0316 72.2921 49.4574 72.2921 47.816V39.9769C72.2921 39.3203 72.0312 38.6907 71.567 38.2264C71.1027 37.7622 70.4731 37.5013 69.8165 37.5013ZM47.5368 30.8999V16.872C47.5368 15.7777 47.9715 14.7283 48.7452 13.9545C49.519 13.1808 50.5684 12.7461 51.6627 12.7461H71.4669C71.7922 12.7461 72.1144 12.8102 72.4149 12.9348C72.7154 13.0594 72.9884 13.2421 73.2183 13.4722L84.7708 25.0247C85.2344 25.4888 85.4948 26.118 85.4949 26.7741V30.8999C85.4949 31.5565 85.234 32.1862 84.7698 32.6504C84.3055 33.1147 83.6759 33.3755 83.0193 33.3755C82.3628 33.3755 81.7331 33.1147 81.2689 32.6504C80.8046 32.1862 80.5438 31.5565 80.5438 30.8999V30.0748H70.6417C69.9852 30.0748 69.3555 29.814 68.8912 29.3497C68.427 28.8855 68.1662 28.2558 68.1662 27.5992V17.6971H52.4879V30.8999C52.4879 31.5565 52.227 32.1862 51.7628 32.6504C51.2985 33.1147 50.6689 33.3755 50.0123 33.3755C49.3558 33.3755 48.7261 33.1147 48.2619 32.6504C47.7976 32.1862 47.5368 31.5565 47.5368 30.8999ZM73.1172 25.1237H77.862L73.1172 20.379V25.1237Z" fill="white"/>
</svg>
