<svg width="80" height="80" viewBox="0 0 80 80" fill="none" xmlns="http://www.w3.org/2000/svg">
<rect width="80" height="80" rx="15" fill="#5045F4"/>
<g clip-path="url(#clip0_315_5)">
<path fill-rule="evenodd" clip-rule="evenodd" d="M21.9157 50.9136C18.9226 49.2128 13.5349 46.3815 13.5349 42.8103C13.5349 38.2838 18.9628 30.9135 33.4271 34.1106C35.4757 34.5635 37.4805 35.3446 39.0812 36.701C49.3083 45.3685 41.1706 61.9527 38.4776 62.4183C35.7838 63.5186 26.8045 57.5162 25.0086 40.7094C25.0086 45.4113 26.1061 68.7207 38.6772 68.1204C49.0534 66.7199 51.4479 49.2128 53.0442 44.2109C54.7403 40.009 55.4387 37.108 59.8287 38.2083C64.2185 39.3088 63.7919 41.6303 63.4204 42.8103C62.223 46.6118 57.2013 48.8127 54.4409 51.1137C57.9995 50.48 66.0943 47.5921 68.4088 41.9099C70.4057 37.0078 62.0237 29.2047 56.7357 26.2035C53.0442 23.5024 48.0755 17.4799 46.1599 14.9989C43.7656 11.8977 40.473 10.3971 37.3802 10.9973C32.9903 11.8493 27.2035 17.6 26.8045 23.2023C29.2988 20.3011 31.8927 15.5992 35.7838 14.9989C41.32 14.1449 40.2136 19.9009 39.3756 21.3015C38.777 22.3019 37.3802 23.5024 35.7838 24.3027C33.7883 25.3031 19.0716 29.7713 15.1313 33.1064C11.7391 35.9774 10.5418 40.9794 10.9409 42.8103C11.6865 46.2309 18.1244 50.9136 21.9157 50.9136ZM48.1554 38.6085C45.9604 32.7062 40.9386 29.7048 38.4776 29.1046C42.2689 28.3043 44.9628 26.6037 45.7608 21.3015C46.5591 25.2031 52.0464 30.3051 55.4387 31.9059C49.1532 32.2059 48.4547 37.408 48.1554 38.6085Z" fill="white"/>
</g>
<defs>
<clipPath id="clip0_315_5">
<rect width="59" height="59" fill="white" transform="translate(10 10)"/>
</clipPath>
</defs>
</svg>
